<svg height="436pt" viewBox="0 -58 436.90667 436" width="436pt" xmlns="http://www.w3.org/2000/svg"><path d="m416.425781 263.941406c-3.773437 0-6.824219 3.054688-6.824219 6.824219v16.40625h-13.59375c-3.773437 0-6.828124 3.058594-6.828124 6.828125s3.054687 6.828125 6.828124 6.828125h20.417969c3.773438 0 6.828125-3.058594 6.828125-6.828125v-23.234375c0-3.769531-3.054687-6.824219-6.828125-6.824219zm0 0"/><path d="m40.898438 287.171875h-13.589844v-16.40625c0-3.769531-3.054688-6.824219-6.828125-6.824219-3.773438 0-6.828125 3.054688-6.828125 6.824219v23.234375c0 3.769531 3.054687 6.828125 6.828125 6.828125h20.417969c3.773437 0 6.828124-3.058594 6.828124-6.828125s-3.054687-6.828125-6.828124-6.828125zm0 0"/><path d="m396.007812 34.585938h13.59375v16.40625c0 3.769531 3.050782 6.828124 6.824219 6.828124 3.773438 0 6.828125-3.058593 6.828125-6.828124v-23.230469c0-3.773438-3.054687-6.828125-6.828125-6.828125h-20.417969c-3.773437 0-6.828124 3.054687-6.828124 6.828125 0 3.769531 3.054687 6.824219 6.828124 6.824219zm0 0"/><path d="m40.898438 20.933594h-20.417969c-3.773438 0-6.828125 3.054687-6.828125 6.828125v23.230469c0 3.769531 3.054687 6.828124 6.828125 6.828124 3.773437 0 6.828125-3.058593 6.828125-6.828124v-16.40625h13.589844c3.773437 0 6.828124-3.054688 6.828124-6.824219 0-3.773438-3.054687-6.828125-6.828124-6.828125zm0 0"/><path d="m218.453125 75.546875c-85.191406 0-152.632813 80.96875-155.46875 84.417969-2.058594 2.515625-2.058594 6.144531 0 8.660156 2.835937 3.445312 70.277344 84.414062 155.46875 84.414062 85.195313 0 152.632813-80.96875 155.46875-84.414062 2.058594-2.519531 2.058594-6.144531 0-8.660156-2.835937-3.449219-70.273437-84.417969-155.46875-84.417969zm75.09375 88.746094c0 38.773437-29.539063 70.769531-67.296875 74.6875-2.589844.167969-5.171875.40625-7.796875.40625s-5.210937-.242188-7.804687-.410157c-37.753907-3.917968-67.289063-35.914062-67.289063-74.683593 0-38.773438 29.542969-70.769531 67.296875-74.683594 2.589844-.171875 5.171875-.410156 7.796875-.410156s5.210937.242187 7.804687.410156c37.753907 3.917969 67.289063 35.914063 67.289063 74.683594zm-216.195313-.003907c9.664063-10.625 36.972657-38.367187 73.175782-56.996093-12.972656 15.433593-20.820313 35.308593-20.820313 57 0 21.667969 7.828125 41.523437 20.773438 56.949219-36.15625-18.628907-63.464844-46.34375-73.128907-56.953126zm209.027344 57.003907c12.972656-15.433594 20.820313-35.308594 20.820313-57 0-21.667969-7.828125-41.523438-20.773438-56.949219 36.15625 18.632812 63.464844 46.34375 73.128907 56.953125-9.664063 10.625-36.972657 38.371094-73.175782 56.996094zm0 0"/><path d="m218.453125 119.808594c-24.53125 0-44.484375 19.953125-44.484375 44.484375s19.953125 44.488281 44.484375 44.488281c24.535156 0 44.484375-19.957031 44.484375-44.488281 0-5.175781-.964844-10.214844-2.707031-15.042969 3.695312-4.207031 6.007812-9.652344 6.007812-15.675781 0-13.175781-10.71875-23.894531-23.890625-23.894531-8.214844 0-15.46875 4.171874-19.773437 10.5-1.375-.125-2.738281-.371094-4.121094-.371094zm0 75.316406c-17 0-30.832031-13.832031-30.832031-30.832031s13.832031-30.832031 30.832031-30.832031h.011719c0 .039062-.011719.074218-.011719.113281 0 13.171875 10.71875 23.890625 23.894531 23.890625 2.035156 0 3.976563-.332032 5.863282-.8125.636718 2.492187 1.078124 5.03125 1.078124 7.640625-.003906 17-13.835937 30.832031-30.835937 30.832031zm23.894531-71.792969c5.644532 0 10.238282 4.59375 10.238282 10.242188 0 5.644531-4.59375 10.238281-10.238282 10.238281-5.648437 0-10.242187-4.59375-10.242187-10.238281 0-5.648438 4.59375-10.242188 10.242187-10.242188zm0 0"/><path d="m218.453125 55.066406c15.058594 0 27.308594-12.25 27.308594-27.304687 0-15.058594-12.25-27.308594-27.308594-27.308594s-27.304687 12.25-27.304687 27.308594c0 15.054687 12.246093 27.304687 27.304687 27.304687zm0-40.960937c7.527344 0 13.652344 6.125 13.652344 13.65625 0 7.527343-6.125 13.652343-13.652344 13.652343s-13.652344-6.125-13.652344-13.652343c0-7.53125 6.125-13.65625 13.652344-13.65625zm0 0"/><path d="m238.933594 266.691406h-40.960938c-3.773437 0-6.824218 3.058594-6.824218 6.828125v40.960938c0 3.769531 3.050781 6.828125 6.824218 6.828125h40.960938c3.773437 0 6.828125-3.058594 6.828125-6.828125v-40.960938c0-3.769531-3.054688-6.828125-6.828125-6.828125zm-6.828125 40.960938h-27.304688v-27.304688h27.304688zm0 0"/><path d="m13.652344 232.558594c0 3.769531 3.054687 6.828125 6.828125 6.828125 3.773437 0 6.828125-3.058594 6.828125-6.828125v-55.871094c7.925781-2.824219 13.652344-10.332031 13.652344-19.222656 0-8.886719-5.726563-16.390625-13.652344-19.21875v-55.871094c0-3.773438-3.054688-6.828125-6.828125-6.828125-3.773438 0-6.828125 3.054687-6.828125 6.828125v55.871094c-7.929688 2.824218-13.652344 10.332031-13.652344 19.21875 0 8.890625 5.722656 16.394531 13.652344 19.222656zm6.828125-81.917969c3.765625 0 6.828125 3.0625 6.828125 6.824219 0 3.765625-3.0625 6.828125-6.828125 6.828125s-6.828125-3.0625-6.828125-6.828125c0-3.761719 3.0625-6.824219 6.828125-6.824219zm0 0"/><path d="m436.90625 157.464844c0-8.886719-5.722656-16.390625-13.652344-19.21875v-55.871094c0-3.773438-3.054687-6.828125-6.828125-6.828125-3.773437 0-6.824219 3.054687-6.824219 6.828125v55.871094c-7.929687 2.824218-13.65625 10.332031-13.65625 19.21875 0 8.890625 5.726563 16.394531 13.65625 19.222656v55.871094c0 3.769531 3.050782 6.828125 6.824219 6.828125 3.773438 0 6.828125-3.058594 6.828125-6.828125v-55.871094c7.929688-2.828125 13.652344-10.332031 13.652344-19.222656zm-20.480469 6.828125c-3.765625 0-6.824219-3.0625-6.824219-6.828125 0-3.761719 3.058594-6.824219 6.824219-6.824219s6.828125 3.0625 6.828125 6.824219c0 3.765625-3.0625 6.828125-6.828125 6.828125zm0 0"/><path d="m75.09375 34.585938h20.480469c3.773437 0 6.824219-3.054688 6.824219-6.824219 0-3.773438-3.050782-6.828125-6.824219-6.828125h-20.480469c-3.773438 0-6.828125 3.054687-6.828125 6.828125 0 3.769531 3.054687 6.824219 6.828125 6.824219zm0 0"/><path d="m341.332031 34.585938h20.480469c3.773438 0 6.828125-3.054688 6.828125-6.824219 0-3.773438-3.054687-6.828125-6.828125-6.828125h-20.480469c-3.773437 0-6.824219 3.054687-6.824219 6.828125 0 3.769531 3.050782 6.824219 6.824219 6.824219zm0 0"/><path d="m129.707031 34.585938h34.132813c3.773437 0 6.828125-3.054688 6.828125-6.824219 0-3.773438-3.054688-6.828125-6.828125-6.828125h-34.132813c-3.773437 0-6.828125 3.054687-6.828125 6.828125 0 3.769531 3.054688 6.824219 6.828125 6.824219zm0 0"/><path d="m273.066406 34.585938h34.132813c3.773437 0 6.828125-3.054688 6.828125-6.824219 0-3.773438-3.054688-6.828125-6.828125-6.828125h-34.132813c-3.773437 0-6.828125 3.054687-6.828125 6.828125 0 3.769531 3.054688 6.824219 6.828125 6.824219zm0 0"/><path d="m95.574219 287.171875h-20.480469c-3.773438 0-6.828125 3.058594-6.828125 6.828125s3.054687 6.828125 6.828125 6.828125h20.480469c3.773437 0 6.824219-3.058594 6.824219-6.828125s-3.050782-6.828125-6.824219-6.828125zm0 0"/><path d="m361.8125 287.171875h-20.480469c-3.773437 0-6.824219 3.058594-6.824219 6.828125s3.050782 6.828125 6.824219 6.828125h20.480469c3.773438 0 6.828125-3.058594 6.828125-6.828125s-3.054687-6.828125-6.828125-6.828125zm0 0"/><path d="m163.839844 287.171875h-34.132813c-3.773437 0-6.828125 3.058594-6.828125 6.828125s3.054688 6.828125 6.828125 6.828125h34.132813c3.773437 0 6.828125-3.058594 6.828125-6.828125s-3.054688-6.828125-6.828125-6.828125zm0 0"/><path d="m307.199219 287.171875h-34.132813c-3.773437 0-6.828125 3.058594-6.828125 6.828125s3.054688 6.828125 6.828125 6.828125h34.132813c3.773437 0 6.828125-3.058594 6.828125-6.828125s-3.054688-6.828125-6.828125-6.828125zm0 0"/></svg>